<svg id="Group_36514" data-name="Group 36514" xmlns="http://www.w3.org/2000/svg" width="156.939" height="46.5" viewBox="0 0 156.939 46.5">
  <path id="Path_1" data-name="Path 1" d="M312.656,675.113a4.454,4.454,0,0,1-4.455,4.454H162.258a4.46,4.46,0,0,1-4.465-4.454V639.6a4.466,4.466,0,0,1,4.465-4.46H308.2a4.459,4.459,0,0,1,4.459,4.458h0v35.516Z" transform="translate(-156.758 -634.102)" fill="#fff"/>
  <path id="Path_2" data-name="Path 2" d="M303.183,675.591H157.245a5.5,5.5,0,0,1-5.5-5.49V634.587a5.5,5.5,0,0,1,5.5-5.5H303.182a5.507,5.507,0,0,1,5.5,5.5V670.1a5.5,5.5,0,0,1-5.5,5.49Z" transform="translate(-151.745 -629.091)" fill="#a6a5a5"/>
  <g id="Group_36536" data-name="Group 36536">
    <path id="Path_3" data-name="Path 3" d="M312.656,675.113a4.454,4.454,0,0,1-4.455,4.454H162.258a4.46,4.46,0,0,1-4.465-4.454V639.6a4.466,4.466,0,0,1,4.465-4.46H308.2a4.459,4.459,0,0,1,4.459,4.458h0v35.516Z" transform="translate(-156.758 -634.102)" fill="#010101"/>
  </g>
  <path id="Path_4" data-name="Path 4" d="M658,629.091H579.827l30.617,46.5H658a5.5,5.5,0,0,0,5.5-5.493V634.587A5.505,5.505,0,0,0,658,629.091Z" transform="translate(-506.557 -629.091)" fill="#fff" opacity="0.1"/>
  <path id="Path_5" data-name="Path 5" d="M267.523,692.654a6.592,6.592,0,0,1,3.141-5.532,6.755,6.755,0,0,0-5.319-2.875c-2.238-.235-4.408,1.339-5.548,1.339-1.163,0-2.918-1.316-4.81-1.277a7.082,7.082,0,0,0-5.961,3.635c-2.578,4.462-.655,11.018,1.814,14.624,1.235,1.767,2.679,3.738,4.568,3.669,1.849-.075,2.539-1.177,4.77-1.177,2.21,0,2.859,1.177,4.786,1.133,1.984-.031,3.233-1.774,4.425-3.556a14.577,14.577,0,0,0,2.024-4.12,6.378,6.378,0,0,1-3.89-5.861Zm-3.64-10.779a6.489,6.489,0,0,0,1.486-4.65,6.612,6.612,0,0,0-4.275,2.211,6.174,6.174,0,0,0-1.524,4.479,5.462,5.462,0,0,0,4.314-2.039Z" transform="translate(-231.361 -668.986)" fill="#fff"/>
  <g id="Group_1" data-name="Group 1" transform="translate(50.156 20.324)">
    <path id="Path_6" data-name="Path 6" d="M457.567,763.192h-2.584l-1.415-4.446h-4.919l-1.348,4.446h-2.515l4.875-15.135h3.01l4.9,15.135Zm-4.425-6.311-1.28-3.952q-.2-.605-.763-2.851h-.045q-.225.966-.719,2.851l-1.258,3.952Zm16.936.72a6.179,6.179,0,0,1-1.513,4.4,4.437,4.437,0,0,1-3.365,1.438,3.369,3.369,0,0,1-3.117-1.548v5.726h-2.425V755.866q0-1.749-.09-3.587H461.7l.135,1.73h.046a4.315,4.315,0,0,1,6.906-.429,6.033,6.033,0,0,1,1.29,4.021Zm-2.471.089a4.5,4.5,0,0,0-.719-2.628,2.485,2.485,0,0,0-2.111-1.077,2.523,2.523,0,0,0-1.628.595,2.758,2.758,0,0,0-.954,1.561,3.16,3.16,0,0,0-.113.738V758.7a2.919,2.919,0,0,0,.73,2.011,2.424,2.424,0,0,0,1.9.82,2.486,2.486,0,0,0,2.133-1.055A4.644,4.644,0,0,0,467.607,757.69Zm15.026-.089a6.179,6.179,0,0,1-1.513,4.4,4.44,4.44,0,0,1-3.366,1.438,3.369,3.369,0,0,1-3.117-1.548v5.726h-2.425V755.866q0-1.749-.09-3.587h2.133l.135,1.73h.046a4.316,4.316,0,0,1,6.907-.429,6.039,6.039,0,0,1,1.29,4.021Zm-2.472.089a4.5,4.5,0,0,0-.72-2.628,2.481,2.481,0,0,0-2.109-1.077,2.533,2.533,0,0,0-1.63.595,2.756,2.756,0,0,0-.953,1.561,3.238,3.238,0,0,0-.114.738V758.7a2.929,2.929,0,0,0,.729,2.011,2.43,2.43,0,0,0,1.9.82,2.483,2.483,0,0,0,2.133-1.055A4.644,4.644,0,0,0,480.161,757.69Zm16.51,1.257a4.042,4.042,0,0,1-1.346,3.144,5.966,5.966,0,0,1-4.124,1.325,7.2,7.2,0,0,1-3.92-.943l.561-2.021a6.749,6.749,0,0,0,3.5.944,3.306,3.306,0,0,0,2.133-.617,2.017,2.017,0,0,0,.766-1.649,2.113,2.113,0,0,0-.63-1.55,5.843,5.843,0,0,0-2.089-1.167q-3.976-1.482-3.977-4.335a3.827,3.827,0,0,1,1.4-3.054,5.551,5.551,0,0,1,3.718-1.191,7.347,7.347,0,0,1,3.436.719l-.608,1.977a6.01,6.01,0,0,0-2.909-.7,2.958,2.958,0,0,0-2.007.629,1.8,1.8,0,0,0-.609,1.372,1.854,1.854,0,0,0,.7,1.482,7.86,7.86,0,0,0,2.2,1.167,7.461,7.461,0,0,1,2.875,1.84,3.835,3.835,0,0,1,.925,2.625Zm8.039-4.848h-2.673v5.3q0,2.022,1.415,2.02a4.266,4.266,0,0,0,1.077-.113l.067,1.841a5.5,5.5,0,0,1-1.886.268,2.908,2.908,0,0,1-2.247-.877,4.3,4.3,0,0,1-.809-2.942v-5.5h-1.592v-1.82h1.592v-2l2.382-.719v2.717h2.673V754.1Zm12.038,3.547a5.986,5.986,0,0,1-1.438,4.132,5.126,5.126,0,0,1-4,1.662,4.886,4.886,0,0,1-3.83-1.592,5.8,5.8,0,0,1-1.427-4.019,5.938,5.938,0,0,1,1.471-4.153,5.1,5.1,0,0,1,3.966-1.617,4.989,4.989,0,0,1,3.862,1.595,5.728,5.728,0,0,1,1.394,3.994Zm-2.514.056a4.886,4.886,0,0,0-.65-2.575,2.4,2.4,0,0,0-2.18-1.3,2.435,2.435,0,0,0-2.224,1.3,4.966,4.966,0,0,0-.651,2.62,4.871,4.871,0,0,0,.651,2.576,2.487,2.487,0,0,0,4.383-.022,4.9,4.9,0,0,0,.67-2.6Zm10.4-3.29a4.225,4.225,0,0,0-.764-.067,2.289,2.289,0,0,0-1.977.967,3.641,3.641,0,0,0-.6,2.155v5.726h-2.425v-7.476q0-1.719-.071-3.436H520.9l.089,2.088h.067a3.743,3.743,0,0,1,1.213-1.73,2.933,2.933,0,0,1,1.753-.585,3.893,3.893,0,0,1,.606.044l0,2.313Zm10.847,2.808a5.687,5.687,0,0,1-.089,1.1h-7.276a3.165,3.165,0,0,0,1.056,2.472,3.61,3.61,0,0,0,2.38.762,8.05,8.05,0,0,0,2.944-.515l.38,1.682a9.1,9.1,0,0,1-3.66.675,5.306,5.306,0,0,1-3.988-1.492,5.516,5.516,0,0,1-1.448-4.008,6.251,6.251,0,0,1,1.349-4.108,4.649,4.649,0,0,1,3.817-1.75,4.068,4.068,0,0,1,3.573,1.75,5.889,5.889,0,0,1,.962,3.432Zm-2.313-.629a3.281,3.281,0,0,0-.471-1.864,2.118,2.118,0,0,0-1.932-1.012,2.3,2.3,0,0,0-1.931.988,3.622,3.622,0,0,0-.718,1.886l5.051,0Z" transform="translate(-444.786 -747.833)" fill="#fff"/>
  </g>
  <g id="Group_2" data-name="Group 2" transform="translate(51.576 8.621)">
    <path id="Path_7" data-name="Path 7" d="M454.825,687.348a15.471,15.471,0,0,1-1.744-.089v-7.317a13.213,13.213,0,0,1,2.053-.155c2.782,0,4.062,1.368,4.062,3.6C459.2,685.958,457.684,687.348,454.825,687.348Zm.407-6.622a4.866,4.866,0,0,0-.96.077v5.562a6.3,6.3,0,0,0,.805.033c1.822,0,2.86-1.037,2.86-2.98A2.427,2.427,0,0,0,455.232,680.725Zm7.956,6.678a2.553,2.553,0,0,1-2.583-2.759,2.612,2.612,0,0,1,2.672-2.836,2.533,2.533,0,0,1,2.583,2.749,2.628,2.628,0,0,1-2.672,2.846Zm.046-4.724c-.861,0-1.413.805-1.413,1.931,0,1.1.563,1.909,1.4,1.909s1.4-.861,1.4-1.932c0-1.092-.552-1.908-1.39-1.908Zm11.566-.761-1.678,5.363h-1.093l-.7-2.329a17.678,17.678,0,0,1-.431-1.732h-.023a11.611,11.611,0,0,1-.43,1.732l-.739,2.329h-1.1l-1.579-5.363h1.225l.607,2.55q.215.911.364,1.722h.023c.088-.451.231-1.016.441-1.71l.762-2.56h.971l.729,2.505c.176.607.32,1.2.431,1.766h.032a15.43,15.43,0,0,1,.364-1.766l.652-2.505Zm6.177,5.363h-1.192V684.2c0-.949-.364-1.424-1.082-1.424a1.238,1.238,0,0,0-1.192,1.313v3.19h-1.192v-3.83c0-.474-.011-.983-.044-1.534h1.049l.056.828h.033a1.927,1.927,0,0,1,1.7-.937c1.126,0,1.866.861,1.866,2.262v3.212Zm3.288,0h-1.193v-7.825h1.193Zm4.347.122a2.554,2.554,0,0,1-2.583-2.759,2.612,2.612,0,0,1,2.671-2.836,2.532,2.532,0,0,1,2.583,2.749,2.627,2.627,0,0,1-2.671,2.846Zm.045-4.724c-.861,0-1.413.805-1.413,1.931,0,1.1.564,1.909,1.4,1.909s1.4-.861,1.4-1.932c0-1.092-.549-1.908-1.389-1.908Zm7.327,4.6-.086-.618h-.032a1.831,1.831,0,0,1-1.569.739,1.56,1.56,0,0,1-1.644-1.579c0-1.324,1.148-2.008,3.135-2.008v-.1c0-.706-.374-1.06-1.114-1.06a2.511,2.511,0,0,0-1.4.4l-.242-.784a3.429,3.429,0,0,1,1.842-.464c1.4,0,2.109.739,2.109,2.219V686a8.109,8.109,0,0,0,.077,1.281Zm-.164-2.671c-1.324,0-1.989.321-1.989,1.082a.76.76,0,0,0,.818.838,1.142,1.142,0,0,0,1.171-1.092Zm6.951,2.671-.056-.861h-.033a1.8,1.8,0,0,1-1.722.983c-1.294,0-2.251-1.137-2.251-2.737,0-1.677.993-2.859,2.349-2.859a1.612,1.612,0,0,1,1.513.729h.024v-3.079h1.193v6.379c0,.519.013,1,.044,1.445Zm-.176-3.156a1.3,1.3,0,0,0-1.256-1.391c-.884,0-1.424.784-1.424,1.887,0,1.082.561,1.822,1.4,1.822a1.339,1.339,0,0,0,1.28-1.424v-.894Zm8.759,3.278a2.553,2.553,0,0,1-2.582-2.759,2.612,2.612,0,0,1,2.671-2.836,2.532,2.532,0,0,1,2.583,2.749,2.627,2.627,0,0,1-2.672,2.846Zm.044-4.724c-.86,0-1.412.805-1.412,1.931,0,1.1.563,1.909,1.4,1.909s1.4-.861,1.4-1.932c0-1.092-.549-1.908-1.39-1.908Zm9.039,4.6h-1.193V684.2c0-.949-.364-1.424-1.082-1.424a1.237,1.237,0,0,0-1.191,1.313v3.19h-1.193v-3.83c0-.474-.011-.983-.044-1.534h1.049l.056.828h.033a1.926,1.926,0,0,1,1.7-.938c1.126,0,1.867.861,1.867,2.262Zm8.021-4.469h-1.312v2.6c0,.663.23.994.694.994a2.355,2.355,0,0,0,.529-.056l.033.905a2.642,2.642,0,0,1-.925.133c-.94,0-1.5-.519-1.5-1.876v-2.7h-.783v-.894h.783v-.983l1.17-.354v1.335h1.312v.9Zm6.311,4.469h-1.191v-3.057c0-.96-.363-1.446-1.082-1.446a1.169,1.169,0,0,0-1.193,1.269v3.233h-1.191v-7.824H531.3v3.222h.024a1.809,1.809,0,0,1,1.613-.872c1.135,0,1.829.883,1.829,2.285v3.19Zm6.466-2.4h-3.578a1.539,1.539,0,0,0,1.691,1.589,4.025,4.025,0,0,0,1.446-.254l.186.828a4.48,4.48,0,0,1-1.8.331,2.49,2.49,0,0,1-2.671-2.7,2.62,2.62,0,0,1,2.537-2.881,2.253,2.253,0,0,1,2.231,2.55,2.3,2.3,0,0,1-.041.54Zm-1.093-.85c0-.828-.417-1.412-1.18-1.412a1.414,1.414,0,0,0-1.3,1.412Z" transform="translate(-453.081 -679.457)" fill="#fff"/>
  </g>
</svg>
