<svg id="Group_36515" data-name="Group 36515" xmlns="http://www.w3.org/2000/svg" xmlns:xlink="http://www.w3.org/1999/xlink" width="156.939" height="46.5" viewBox="0 0 156.939 46.5">
  <defs>
    <linearGradient id="linear-gradient" x1="0.5" y1="-0.003" x2="0.5" y2="0.993" gradientUnits="objectBoundingBox">
      <stop offset="0" stop-color="#267caf"/>
      <stop offset="0.286" stop-color="#4a92b4"/>
      <stop offset="0.767" stop-color="#79bcba"/>
      <stop offset="1" stop-color="#88cebc"/>
    </linearGradient>
    <linearGradient id="linear-gradient-2" x1="0.638" y1="0.141" x2="0.339" y2="0.948" gradientUnits="objectBoundingBox">
      <stop offset="0" stop-color="#f48879"/>
      <stop offset="0.119" stop-color="#f5907a"/>
      <stop offset="0.713" stop-color="#fbb777"/>
      <stop offset="1" stop-color="#fdc874"/>
    </linearGradient>
    <linearGradient id="linear-gradient-3" x1="0.866" y1="0.172" x2="0.048" y2="1.029" gradientUnits="objectBoundingBox">
      <stop offset="0" stop-color="#eb413d"/>
      <stop offset="0.167" stop-color="#d94452"/>
      <stop offset="0.575" stop-color="#af487a"/>
      <stop offset="0.862" stop-color="#954b92"/>
      <stop offset="1" stop-color="#894a9c"/>
    </linearGradient>
    <linearGradient id="linear-gradient-4" x1="0.106" y1="0.073" x2="0.888" y2="0.85" gradientUnits="objectBoundingBox">
      <stop offset="0" stop-color="#54c0ac"/>
      <stop offset="1" stop-color="#dde79a"/>
    </linearGradient>
  </defs>
  <path id="Path_8" data-name="Path 8" d="M312.656,344.579a4.454,4.454,0,0,1-4.455,4.454H162.258a4.46,4.46,0,0,1-4.465-4.454V309.062a4.466,4.466,0,0,1,4.465-4.459H308.2a4.459,4.459,0,0,1,4.459,4.458h0v35.517Z" transform="translate(-156.758 -303.568)" fill="#fff"/>
  <path id="Path_9" data-name="Path 9" d="M303.183,345.057H157.245a5.5,5.5,0,0,1-5.5-5.49V304.052a5.5,5.5,0,0,1,5.5-5.5H303.182a5.507,5.507,0,0,1,5.5,5.5v35.515a5.5,5.5,0,0,1-5.5,5.49Z" transform="translate(-151.745 -298.556)" fill="#a6a5a5"/>
  <path id="Path_10" data-name="Path 10" d="M312.656,344.579a4.454,4.454,0,0,1-4.455,4.454H162.258a4.46,4.46,0,0,1-4.465-4.454V309.062a4.466,4.466,0,0,1,4.465-4.459H308.2a4.459,4.459,0,0,1,4.459,4.458h0v35.517Z" transform="translate(-156.758 -303.568)" fill="#010101"/>
  <path id="Path_11" data-name="Path 11" d="M658,298.556H579.827l30.617,46.5H658a5.5,5.5,0,0,0,5.5-5.493V304.052A5.506,5.506,0,0,0,658,298.556Z" transform="translate(-506.557 -298.556)" fill="#fff" opacity="0.1"/>
  <g id="Group_5" data-name="Group 5" transform="translate(16.436 9.062)">
    <path id="Path_12" data-name="Path 12" d="M442.715,362.521a3.1,3.1,0,0,1-.8,2.273,3.537,3.537,0,1,1-2.5-6.024,3.028,3.028,0,0,1,1.364.341,2.475,2.475,0,0,1,1.023.8l-.568.568a2.119,2.119,0,0,0-1.819-.8,2.262,2.262,0,0,0-1.819.8,2.744,2.744,0,0,0,0,3.865,2.927,2.927,0,0,0,1.819.8,2.492,2.492,0,0,0,1.932-.8,1.882,1.882,0,0,0,.568-1.364h-2.5v-.909h3.3v.455Zm5.229-2.842h-3.069v2.16h2.842v.8h-2.842v2.16h3.069v.909h-3.978v-6.82h3.978Zm3.751,6.024h-.909v-6.024h-1.932v-.8h4.774v.8h-1.932Zm5.229,0v-6.82h.909v6.82Zm4.774,0h-.909v-6.024h-1.932v-.8h4.66v.8h-1.932V365.7Zm10.8-.909a3.568,3.568,0,1,1,1.023-2.5A3.342,3.342,0,0,1,472.5,364.794Zm-4.319-.568a2.683,2.683,0,0,0,1.819.8,2.261,2.261,0,0,0,1.819-.8,2.742,2.742,0,0,0,.8-1.932,2.341,2.341,0,0,0-.8-1.932,2.682,2.682,0,0,0-1.819-.8,2.262,2.262,0,0,0-1.819.8,2.742,2.742,0,0,0-.8,1.932A2.342,2.342,0,0,0,468.176,364.226Zm6.593,1.478v-6.82h1.023l3.3,5.342v-5.342H480v6.82h-.909l-3.524-5.569V365.7Z" transform="translate(-403.696 -357.526)" fill="#fff"/>
    <path id="Path_13" data-name="Path 13" d="M464.592,423.212A4.782,4.782,0,0,0,459.7,428.1a4.851,4.851,0,0,0,4.888,4.888,4.782,4.782,0,0,0,4.888-4.888A4.716,4.716,0,0,0,464.592,423.212Zm0,7.729a2.965,2.965,0,0,1,0-5.911,2.753,2.753,0,0,1,2.728,2.955A2.821,2.821,0,0,1,464.592,430.942Zm-10.571-7.729a4.782,4.782,0,0,0-4.888,4.888,4.852,4.852,0,0,0,4.888,4.888,4.782,4.782,0,0,0,4.888-4.888A4.716,4.716,0,0,0,454.021,423.212Zm0,7.729a2.965,2.965,0,0,1,0-5.911,2.753,2.753,0,0,1,2.728,2.955A2.821,2.821,0,0,1,454.021,430.942ZM441.4,424.69v2.046h4.888a4.3,4.3,0,0,1-1.137,2.614,5.031,5.031,0,0,1-3.751,1.478,5.292,5.292,0,0,1-5.342-5.456,5.362,5.362,0,0,1,5.342-5.456,5.636,5.636,0,0,1,3.751,1.478l1.478-1.478a7.283,7.283,0,0,0-5.115-2.046,7.5,7.5,0,1,0,0,15,6.541,6.541,0,0,0,5.229-2.16,6.842,6.842,0,0,0,1.819-4.774,4.261,4.261,0,0,0-.114-1.25Zm51.6,1.591a4.416,4.416,0,0,0-4.092-3.069,4.578,4.578,0,0,0-4.547,4.888,4.757,4.757,0,0,0,4.774,4.888,4.663,4.663,0,0,0,3.978-2.16l-1.591-1.136a2.771,2.771,0,0,1-2.387,1.364,2.466,2.466,0,0,1-2.387-1.478l6.479-2.728-.227-.568Zm-6.593,1.591a2.761,2.761,0,0,1,2.5-2.842,2.011,2.011,0,0,1,1.819,1.023l-4.319,1.819Zm-5.342,4.66h2.159V418.325h-2.159Zm-3.41-8.3a3.742,3.742,0,0,0-2.614-1.137,4.884,4.884,0,0,0-4.66,4.888,4.707,4.707,0,0,0,4.66,4.774,3.264,3.264,0,0,0,2.5-1.137h.114v.682a2.584,2.584,0,0,1-5,1.137l-1.819.8a4.689,4.689,0,0,0,4.319,2.842c2.5,0,4.547-1.478,4.547-5V423.44h-2.046v.8Zm-2.5,6.706a2.965,2.965,0,0,1,0-5.911,2.978,2.978,0,0,1,0,5.911ZM502.9,418.325h-5.115v14.208h2.16v-5.342H502.9a4.438,4.438,0,1,0,0-8.866Zm.114,6.82h-3.069v-4.888h3.069a2.5,2.5,0,0,1,2.5,2.387,2.6,2.6,0,0,1-2.5,2.5Zm13.072-2.046a3.82,3.82,0,0,0-3.751,2.16l1.932.8a2.008,2.008,0,0,1,1.932-1.023,2.136,2.136,0,0,1,2.273,1.819v.114a4.508,4.508,0,0,0-2.159-.568c-2.046,0-4.092,1.137-4.092,3.182a3.33,3.33,0,0,0,3.524,3.183,3.2,3.2,0,0,0,2.728-1.364h.114v1.137h2.046v-5.456a4.3,4.3,0,0,0-4.547-3.978Zm-.227,7.843c-.682,0-1.7-.341-1.7-1.25,0-1.137,1.25-1.478,2.273-1.478a4.392,4.392,0,0,1,1.932.455A2.647,2.647,0,0,1,515.855,430.942Zm11.935-7.5-2.387,6.138h-.114l-2.5-6.138h-2.273l3.751,8.639-2.16,4.774h2.16l5.8-13.413H527.79Zm-19.1,9.093h2.16V418.325h-2.16Z" transform="translate(-402.044 -406.511)" fill="#fff"/>
    <g id="Group_4" data-name="Group 4">
      <path id="Path_14" data-name="Path 14" d="M248.226,353.686a2.223,2.223,0,0,0-.455,1.591V380.4a2.248,2.248,0,0,0,.568,1.591l.114.114,14.095-14.095v-.227Z" transform="translate(-247.771 -353.312)" fill="url(#linear-gradient)"/>
      <path id="Path_15" data-name="Path 15" d="M338.1,418.468l-4.66-4.66v-.341l4.66-4.66.114.114,5.57,3.183c1.591.909,1.591,2.387,0,3.3Z" transform="translate(-318.776 -398.998)" fill="url(#linear-gradient-2)"/>
      <path id="Path_16" data-name="Path 16" d="M269.409,441.472l-4.774-4.774-14.208,14.208c.568.568,1.364.568,2.387.114l16.6-9.548" transform="translate(-249.972 -422.116)" fill="url(#linear-gradient-3)"/>
      <path id="Path_17" data-name="Path 17" d="M269.409,361.311l-16.6-9.434a1.843,1.843,0,0,0-2.387.114l14.208,14.095,4.774-4.774Z" transform="translate(-249.972 -351.503)" fill="url(#linear-gradient-4)"/>
    </g>
  </g>
</svg>
