<svg xmlns="http://www.w3.org/2000/svg" width="15.684" height="13.941" viewBox="0 0 15.684 13.941">
  <path id="Icon_awesome-external-link-alt" data-name="Icon awesome-external-link-alt" d="M15.684.654V4.138a.654.654,0,0,1-1.116.462L13.6,3.628,6.965,10.259a.653.653,0,0,1-.924,0l-.616-.616a.653.653,0,0,1,0-.924l6.631-6.631-.972-.972A.654.654,0,0,1,11.546,0h3.485A.653.653,0,0,1,15.684.654Zm-4.6,6.72-.436.436a.653.653,0,0,0-.191.462V12.2H1.743V3.485H8.931a.654.654,0,0,0,.462-.191l.436-.436a.654.654,0,0,0-.462-1.116H1.307A1.307,1.307,0,0,0,0,3.05v9.585a1.307,1.307,0,0,0,1.307,1.307h9.585A1.307,1.307,0,0,0,12.2,12.634v-4.8A.654.654,0,0,0,11.083,7.374Z" fill="#e8bf3b"/>
</svg>
